<svg xmlns="http://www.w3.org/2000/svg" width="312" height="183">
  <defs>
    <linearGradient id="a" x1="-.1" y1="0" x2=".7" y2=".8" gradientUnits="objectBoundingBox">
      <stop offset="0" stop-color="#0076ff"/>
      <stop offset="1" stop-color="#7216a3"/>
    </linearGradient>
    <clipPath id="b">
      <rect data-name="Rectangle 23" width="312" height="183" rx="6" transform="translate(1575 240)" fill="#7a54f7"/>
    </clipPath>
  </defs>
  <g data-name="Group 110" transform="translate(-1579 -240)">
    <rect data-name="Rectangle 21" width="312" height="183" rx="6" transform="translate(1579 240)" fill="url(#a)"/>
    <g data-name="Group 44" transform="translate(2228 -1759)">
      <rect data-name="Rectangle 22" width="33" height="22" rx="3" transform="translate(-623 2022)" fill="rgba(255,255,255,0.84)"/>
      <g data-name="Union 5" fill="none">
        <path d="M-611 2037.3a6.5 6.5 0 011.5-4.3 6.5 6.5 0 01-1.5-4.3c0-3.1 2-5.7 4.5-5.7s4.5 2.6 4.5 5.7a6.5 6.5 0 01-1.5 4.3 6.5 6.5 0 011.5 4.3c0 3.1-2 5.7-4.5 5.7s-4.5-2.6-4.5-5.7z"/>
        <path d="M-606.5 2042a3 3 0 002.4-1.3c.7-.9 1.1-2.1 1.1-3.4 0-1.4-.5-2.7-1.3-3.6l-.6-.7.6-.7c.8-.9 1.3-2.2 1.3-3.6 0-1.3-.4-2.5-1.1-3.4a3 3 0 00-2.4-1.3 3 3 0 00-2.4 1.3c-.7.9-1.1 2.1-1.1 3.4 0 1.4.5 2.7 1.3 3.6l.6.7-.6.7c-.8.9-1.3 2.2-1.3 3.6 0 1.3.4 2.5 1.1 3.4a3 3 0 002.4 1.3m0 1c-2.5 0-4.5-2.6-4.5-5.7 0-1.7.6-3.3 1.5-4.3-1-1-1.5-2.6-1.5-4.3 0-3.1 2-5.7 4.5-5.7s4.5 2.6 4.5 5.7c0 1.7-.6 3.3-1.5 4.3 1 1 1.5 2.6 1.5 4.3 0 3.1-2 5.7-4.5 5.7z" fill="#7a54f7"/>
      </g>
      <path data-name="Path 31" d="M-611 2028.5h-12" fill="none" stroke="#7a54f7"/>
      <path data-name="Path 34" d="M-590 2028.5h-12" fill="none" stroke="#7a54f7"/>
      <path data-name="Path 32" d="M-611 2036.5h-12" fill="none" stroke="#7a54f7"/>
      <path data-name="Path 33" d="M-590 2036.5h-12" fill="none" stroke="#7a54f7"/>
    </g>
    <g data-name="Mask Group 2" transform="translate(4)" clip-path="url(#b)" fill="none" stroke="rgba(255,255,255,0.11)">
      <path data-name="Path 35" d="M1570 387.3l65.5-38.2s4-2.3.6-8.2l-31.5-54s-3.4-5.7 1.8-8.6l73.6-42.5"/>
      <path data-name="Path 36" d="M1563 385.3l65.5-38.2s4-2.3.6-8.2l-31.5-54s-3.4-5.7 1.8-8.6l73.6-42.5"/>
      <path data-name="Path 37" d="M1555 383.3l65.5-38.2s4-2.3.6-8.2l-31.5-54s-3.4-5.7 1.8-8.6l73.6-42.5"/>
      <path data-name="Path 38" d="M1547 381.3l65.5-38.2s4-2.3.6-8.2l-31.5-54s-3.4-5.7 1.8-8.6l73.6-42.5"/>
      <path data-name="Path 39" d="M1539 379.3l65.5-38.2s4-2.3.6-8.2l-31.5-54s-3.4-5.7 1.8-8.6l73.6-42.5"/>
      <path data-name="Path 40" d="M1529 376.3l65.5-38.2s4-2.3.6-8.2l-31.5-54s-3.4-5.7 1.8-8.6l73.6-42.5"/>
    </g>
    <g data-name="Group 111">
      <g data-name="Group 109" transform="translate(52 1)">
        <circle data-name="Ellipse 31" cx="11" cy="11" r="11" transform="translate(1784 262)" fill="#e34534"/>
        <circle data-name="Ellipse 32" cx="11" cy="11" r="11" transform="translate(1797 262)" fill="#f0b14e"/>
        <path data-name="Intersection 4" d="M1797 273a11 11 0 014.5-8.9 11 11 0 014.5 8.9 11 11 0 01-4.5 8.9 11 11 0 01-4.5-8.9z" fill="#f37e39"/>
      </g>
    </g>
  </g>
</svg>
