<?xml version="1.0" encoding="utf-8"?>
<!-- Generator: Adobe Illustrator 24.0.0, SVG Export Plug-In . SVG Version: 6.00 Build 0)  -->
<svg version="1.1" id="Warstwa_1" xmlns="http://www.w3.org/2000/svg" xmlns:xlink="http://www.w3.org/1999/xlink" x="0px" y="0px"
	 viewBox="0 0 199.2 41.3" style="enable-background:new 0 0 199.2 41.3;" xml:space="preserve">
<style type="text/css">
	.st0{enable-background:new    ;}
	.st1{fill:#FFFFFF;}
	.st2{fill:#429FDB;}
	.st3{fill:#F59B7A;}
	.st4{fill:#7A54F7;}
</style>
<g id="Group_101" transform="translate(-36.828 -26.356)">
	<g class="st0">
		<path class="st1" d="M100.8,43.5c-0.3-0.4-0.8-0.7-1.2-0.9c-0.5-0.2-1.1-0.3-1.7-0.3s-1.2,0.1-1.8,0.4c-0.5,0.2-1,0.6-1.4,1
			c-0.4,0.4-0.7,1-0.9,1.6s-0.3,1.3-0.3,2c0,0.7,0.1,1.4,0.3,2c0.2,0.6,0.5,1.1,0.9,1.6c0.4,0.4,0.9,0.8,1.4,1
			c0.5,0.2,1.1,0.4,1.7,0.4c0.7,0,1.3-0.1,1.9-0.4c0.5-0.3,1-0.7,1.3-1.2l2.9,2.1c-0.7,0.9-1.5,1.6-2.5,2c-1,0.4-2.1,0.7-3.1,0.7
			c-1.2,0-2.3-0.2-3.4-0.6c-1-0.4-1.9-0.9-2.7-1.6c-0.7-0.7-1.3-1.6-1.7-2.6c-0.4-1-0.6-2.1-0.6-3.4c0-1.2,0.2-2.4,0.6-3.4
			c0.4-1,1-1.9,1.7-2.6c0.7-0.7,1.6-1.3,2.7-1.6c1-0.4,2.1-0.6,3.4-0.6c0.4,0,0.9,0,1.4,0.1c0.5,0.1,0.9,0.2,1.4,0.4
			s0.9,0.4,1.3,0.7c0.4,0.3,0.8,0.7,1.1,1.1L100.8,43.5z"/>
		<path class="st1" d="M105,40.9c0-0.5,0.2-1,0.6-1.4s0.8-0.6,1.4-0.6c0.5,0,1,0.2,1.4,0.6s0.6,0.8,0.6,1.4c0,0.5-0.2,1-0.6,1.4
			s-0.8,0.6-1.4,0.6c-0.5,0-1-0.2-1.4-0.6S105,41.5,105,40.9z M105.3,44.3h3.3V55h-3.3V44.3z"/>
		<path class="st1" d="M111,44.3h3.2v1.5h0c0.1-0.2,0.2-0.4,0.4-0.6c0.2-0.2,0.4-0.4,0.7-0.5c0.3-0.2,0.6-0.3,0.9-0.4
			s0.7-0.2,1.1-0.2c0.8,0,1.5,0.1,2,0.4c0.5,0.3,0.9,0.6,1.2,1.1c0.3,0.5,0.5,1,0.6,1.6c0.1,0.6,0.2,1.3,0.2,2V55H118v-5.2
			c0-0.3,0-0.6,0-1s-0.1-0.6-0.2-0.9c-0.1-0.3-0.3-0.5-0.5-0.7s-0.6-0.3-1-0.3s-0.8,0.1-1,0.2c-0.3,0.2-0.5,0.4-0.6,0.6
			c-0.1,0.3-0.2,0.5-0.3,0.9c0,0.3-0.1,0.7-0.1,1V55H111V44.3z"/>
		<path class="st1" d="M133.7,53.2c-0.5,0.7-1.2,1.2-2,1.6c-0.8,0.4-1.6,0.5-2.5,0.5c-0.8,0-1.6-0.1-2.3-0.4
			c-0.7-0.3-1.4-0.6-1.9-1.1c-0.5-0.5-1-1.1-1.3-1.8c-0.3-0.7-0.5-1.5-0.5-2.3s0.2-1.6,0.5-2.3c0.3-0.7,0.7-1.3,1.3-1.8
			c0.5-0.5,1.2-0.9,1.9-1.1c0.7-0.3,1.5-0.4,2.3-0.4c0.8,0,1.5,0.1,2.1,0.4c0.6,0.3,1.2,0.6,1.6,1.1s0.8,1.1,1,1.8
			c0.2,0.7,0.4,1.5,0.4,2.3v1h-7.7c0.1,0.6,0.4,1.1,0.9,1.5s1,0.6,1.6,0.6c0.5,0,1-0.1,1.4-0.4c0.4-0.2,0.7-0.6,1-0.9L133.7,53.2z
			 M130.9,48.4c0-0.6-0.2-1-0.6-1.4c-0.4-0.4-0.9-0.6-1.5-0.6c-0.4,0-0.7,0.1-1,0.2c-0.3,0.1-0.5,0.3-0.7,0.5
			c-0.2,0.2-0.4,0.4-0.5,0.6c-0.1,0.2-0.2,0.5-0.2,0.8H130.9z"/>
		<path class="st1" d="M136.2,44.3h3.2v1.5h0c0.1-0.2,0.2-0.4,0.4-0.6c0.2-0.2,0.4-0.4,0.7-0.5c0.3-0.2,0.6-0.3,0.9-0.4
			c0.3-0.1,0.7-0.2,1.1-0.2c0.7,0,1.4,0.2,2,0.5c0.6,0.3,1,0.8,1.3,1.5c0.4-0.7,0.8-1.2,1.4-1.5c0.5-0.3,1.2-0.4,2-0.4
			c0.7,0,1.3,0.1,1.8,0.4s0.9,0.6,1.2,1c0.3,0.4,0.5,0.9,0.6,1.5c0.1,0.6,0.2,1.2,0.2,1.8V55h-3.3v-6.2c0-0.5-0.1-0.9-0.3-1.3
			s-0.6-0.5-1.1-0.5c-0.4,0-0.7,0.1-1,0.2c-0.3,0.1-0.5,0.3-0.6,0.5c-0.2,0.2-0.3,0.5-0.3,0.8c-0.1,0.3-0.1,0.6-0.1,0.9V55H143v-5.7
			c0-0.2,0-0.4,0-0.7c0-0.3-0.1-0.5-0.2-0.8c-0.1-0.2-0.2-0.5-0.4-0.6c-0.2-0.2-0.5-0.3-0.9-0.3c-0.4,0-0.8,0.1-1,0.2
			c-0.3,0.2-0.5,0.4-0.6,0.6s-0.2,0.5-0.3,0.9c0,0.3-0.1,0.7-0.1,1V55h-3.3V44.3z"/>
		<path class="st1" d="M162.1,53.7L162.1,53.7c-0.4,0.6-0.9,1-1.5,1.2c-0.6,0.2-1.3,0.4-1.9,0.4c-0.5,0-1-0.1-1.4-0.2
			c-0.5-0.1-0.9-0.3-1.2-0.6c-0.4-0.3-0.6-0.6-0.8-1c-0.2-0.4-0.3-0.9-0.3-1.4c0-0.6,0.1-1.1,0.3-1.6c0.2-0.4,0.5-0.8,0.9-1.1
			c0.4-0.3,0.8-0.5,1.3-0.6c0.5-0.2,1-0.3,1.6-0.3c0.5-0.1,1.1-0.1,1.6-0.1c0.5,0,1,0,1.5,0c0-0.6-0.2-1.1-0.6-1.4
			c-0.4-0.3-0.9-0.5-1.5-0.5c-0.5,0-1,0.1-1.5,0.3s-0.8,0.5-1.2,0.9l-1.8-1.8c0.6-0.6,1.3-1,2.2-1.3s1.7-0.4,2.6-0.4
			c1,0,1.8,0.1,2.4,0.4c0.6,0.2,1.1,0.6,1.5,1.1c0.4,0.5,0.6,1,0.8,1.7c0.1,0.7,0.2,1.5,0.2,2.4V55h-3V53.7z M161.2,50.3
			c-0.2,0-0.6,0-0.9,0c-0.4,0-0.7,0.1-1.1,0.2s-0.6,0.3-0.9,0.5s-0.4,0.5-0.4,0.9c0,0.4,0.2,0.7,0.5,0.9c0.3,0.2,0.7,0.3,1.1,0.3
			c0.3,0,0.6,0,0.9-0.1s0.6-0.2,0.8-0.4c0.2-0.2,0.4-0.4,0.6-0.6c0.1-0.2,0.2-0.5,0.2-0.9v-0.7H161.2z"/>
	</g>
	<g class="st0">
		<path class="st1" d="M181.5,42c-0.7-1-1.7-1.5-3-1.5c-0.4,0-0.8,0.1-1.2,0.2c-0.4,0.1-0.8,0.3-1.1,0.5s-0.6,0.5-0.8,0.9
			c-0.2,0.4-0.3,0.8-0.3,1.3c0,0.7,0.2,1.3,0.6,1.6c0.4,0.4,0.9,0.7,1.5,1c0.6,0.2,1.2,0.5,1.9,0.7c0.7,0.2,1.3,0.5,1.9,0.8
			c0.6,0.3,1.1,0.8,1.5,1.3c0.4,0.5,0.6,1.3,0.6,2.2c0,0.7-0.2,1.3-0.5,1.9c-0.3,0.6-0.7,1-1.2,1.4c-0.5,0.4-1,0.7-1.7,0.9
			c-0.6,0.2-1.2,0.3-1.8,0.3c-1,0-1.9-0.2-2.7-0.5c-0.9-0.4-1.6-1-2.2-1.8l1.5-1c0.3,0.6,0.8,1,1.4,1.4c0.6,0.3,1.3,0.5,2.1,0.5
			c0.4,0,0.8-0.1,1.2-0.2c0.4-0.1,0.7-0.3,1.1-0.5c0.3-0.2,0.6-0.5,0.8-0.9c0.2-0.4,0.3-0.8,0.3-1.2c0-0.5-0.1-1-0.3-1.4
			s-0.5-0.7-0.9-0.9c-0.4-0.2-0.8-0.4-1.3-0.6c-0.5-0.2-1-0.3-1.5-0.5c-0.5-0.2-1-0.3-1.5-0.5c-0.5-0.2-0.9-0.5-1.3-0.8
			c-0.4-0.3-0.7-0.7-0.9-1.2c-0.2-0.5-0.3-1.1-0.3-1.8c0-0.7,0.1-1.4,0.4-2s0.7-1,1.1-1.4c0.5-0.4,1-0.6,1.6-0.8s1.2-0.3,1.8-0.3
			c0.9,0,1.7,0.1,2.4,0.4s1.4,0.8,2,1.5L181.5,42z"/>
		<path class="st1" d="M191.1,46h-3v6.1c0,0.4,0,0.7,0.1,0.9s0.2,0.4,0.3,0.6s0.3,0.2,0.5,0.3c0.2,0.1,0.4,0.1,0.6,0.1
			c0.2,0,0.5,0,0.8-0.1c0.3-0.1,0.5-0.2,0.7-0.3l0.1,1.3c-0.5,0.2-1.2,0.4-2,0.4c-0.3,0-0.6,0-0.9-0.1c-0.3-0.1-0.6-0.2-0.8-0.4
			c-0.2-0.2-0.5-0.5-0.6-0.8c-0.2-0.4-0.2-0.8-0.2-1.4V46h-2.2v-1.3h2.2v-2.9h1.5v2.9h3V46z"/>
		<path class="st1" d="M200.6,55c0-0.3,0-0.6-0.1-0.8c0-0.3,0-0.5,0-0.8h0c-0.2,0.3-0.4,0.5-0.6,0.8c-0.2,0.2-0.5,0.4-0.8,0.6
			c-0.3,0.2-0.6,0.3-1,0.4c-0.3,0.1-0.7,0.1-1,0.1c-1.3,0-2.3-0.3-2.9-1c-0.6-0.7-0.9-1.7-0.9-3v-6.5h1.5v5.7c0,0.6,0,1.1,0.1,1.5
			c0.1,0.4,0.2,0.8,0.5,1.1c0.2,0.3,0.5,0.5,0.9,0.7s0.8,0.2,1.4,0.2c0.1,0,0.3,0,0.6-0.1c0.3-0.1,0.7-0.2,1.1-0.5s0.7-0.7,1-1.2
			c0.3-0.5,0.4-1.3,0.4-2.2v-5.3h1.5v8c0,0.3,0,0.6,0,1.1c0,0.4,0,0.8,0.1,1.2H200.6z"/>
		<path class="st1" d="M215.6,55h-1.5v-1.7h0c-0.2,0.4-0.5,0.7-0.8,0.9c-0.3,0.2-0.7,0.5-1,0.6c-0.4,0.2-0.7,0.3-1.1,0.4
			c-0.4,0.1-0.7,0.1-1.1,0.1c-0.8,0-1.5-0.1-2.2-0.4c-0.7-0.3-1.2-0.6-1.7-1.1c-0.5-0.5-0.9-1.1-1.1-1.7s-0.4-1.4-0.4-2.2
			c0-0.8,0.1-1.5,0.4-2.2c0.3-0.7,0.6-1.2,1.1-1.7c0.5-0.5,1.1-0.9,1.7-1.1c0.7-0.3,1.4-0.4,2.2-0.4c0.3,0,0.7,0,1.1,0.1
			c0.4,0.1,0.7,0.2,1.1,0.4c0.4,0.2,0.7,0.4,1,0.6c0.3,0.2,0.6,0.6,0.8,0.9h0v-8.1h1.5V55z M206.2,49.9c0,0.6,0.1,1.1,0.3,1.6
			c0.2,0.5,0.4,0.9,0.8,1.3c0.3,0.4,0.7,0.7,1.2,0.9s1,0.3,1.6,0.3c0.6,0,1.1-0.1,1.6-0.3s0.9-0.5,1.3-0.9c0.4-0.4,0.7-0.8,0.9-1.3
			c0.2-0.5,0.3-1,0.3-1.6c0-0.6-0.1-1.1-0.3-1.6c-0.2-0.5-0.5-0.9-0.9-1.3c-0.4-0.4-0.8-0.7-1.3-0.9s-1.1-0.3-1.6-0.3
			c-0.6,0-1.1,0.1-1.6,0.3s-0.9,0.5-1.2,0.9c-0.3,0.4-0.6,0.8-0.8,1.3C206.3,48.7,206.2,49.3,206.2,49.9z"/>
		<path class="st1" d="M220.9,40.7c0,0.3-0.1,0.6-0.3,0.8c-0.2,0.2-0.5,0.3-0.7,0.3s-0.5-0.1-0.7-0.3c-0.2-0.2-0.3-0.5-0.3-0.8
			c0-0.3,0.1-0.6,0.3-0.8c0.2-0.2,0.5-0.3,0.7-0.3s0.5,0.1,0.7,0.3C220.8,40.2,220.9,40.4,220.9,40.7z M220.6,55h-1.5V44.7h1.5V55z"
			/>
		<path class="st1" d="M234.5,49.9c0,0.8-0.1,1.5-0.4,2.2s-0.6,1.2-1.1,1.7c-0.5,0.5-1.1,0.9-1.7,1.1c-0.7,0.3-1.4,0.4-2.2,0.4
			c-0.8,0-1.5-0.1-2.2-0.4c-0.7-0.3-1.2-0.6-1.7-1.1c-0.5-0.5-0.9-1.1-1.1-1.7s-0.4-1.4-0.4-2.2c0-0.8,0.1-1.5,0.4-2.2
			c0.3-0.7,0.6-1.2,1.1-1.7c0.5-0.5,1.1-0.9,1.7-1.1c0.7-0.3,1.4-0.4,2.2-0.4c0.8,0,1.5,0.1,2.2,0.4c0.7,0.3,1.2,0.6,1.7,1.1
			c0.5,0.5,0.9,1.1,1.1,1.7C234.3,48.4,234.5,49.1,234.5,49.9z M232.9,49.9c0-0.6-0.1-1.1-0.3-1.6c-0.2-0.5-0.4-0.9-0.8-1.3
			c-0.3-0.4-0.7-0.7-1.2-0.9s-1-0.3-1.6-0.3c-0.6,0-1.1,0.1-1.6,0.3s-0.9,0.5-1.2,0.9s-0.6,0.8-0.8,1.3c-0.2,0.5-0.3,1-0.3,1.6
			c0,0.6,0.1,1.1,0.3,1.6c0.2,0.5,0.4,0.9,0.8,1.3c0.3,0.4,0.7,0.7,1.2,0.9s1,0.3,1.6,0.3c0.6,0,1.1-0.1,1.6-0.3s0.9-0.5,1.2-0.9
			c0.3-0.4,0.6-0.8,0.8-1.3C232.8,51,232.9,50.4,232.9,49.9z"/>
	</g>
	<g id="Group_1" transform="translate(-2 11)">
		<path id="Rectangle_1" class="st2" d="M46.5,18L46.5,18c3,0,5.5,2.5,5.5,5.5v24c0,3-2.5,5.5-5.5,5.5l0,0c-3,0-5.5-2.5-5.5-5.5v-24
			C41,20.5,43.5,18,46.5,18z"/>
		<path id="Rectangle_2" class="st3" d="M71.2,39L71.2,39c-1.7,2.5-5.1,3.3-7.6,1.6L43.4,27.6c-2.5-1.7-3.3-5.1-1.6-7.6l0,0
			c1.7-2.5,5.1-3.3,7.6-1.6l20.1,13.1C72.1,33.1,72.8,36.5,71.2,39z"/>
		<path id="Rectangle_3" class="st4" d="M41.8,52L41.8,52c-1.7-2.5-0.9-6,1.6-7.6l20.1-13.1c2.5-1.7,6-0.9,7.6,1.6l0,0
			c1.7,2.5,0.9,6-1.6,7.6L49.4,53.6C46.9,55.3,43.5,54.6,41.8,52z"/>
	</g>
</g>
</svg>
