<?xml version="1.0" encoding="utf-8"?>
<!-- Generator: Adobe Illustrator 24.0.0, SVG Export Plug-In . SVG Version: 6.00 Build 0)  -->
<svg version="1.1" id="Warstwa_1" xmlns="http://www.w3.org/2000/svg" xmlns:xlink="http://www.w3.org/1999/xlink" x="0px" y="0px"
	 viewBox="0 0 691.8 106.6" style="enable-background:new 0 0 691.8 106.6;" xml:space="preserve">
<style type="text/css">
	.st0{fill:none;stroke:#46475E;stroke-width:8;stroke-linecap:round;}
	.st1{enable-background:new    ;}
	.st2{fill:#46475E;}
</style>
<g id="Screen_Group" transform="translate(-484.21 -222.399)">
	<path id="Screen" class="st0" d="M488.5,239.8c0,0,177.3-13.4,348.1-13.4s335.1,13.4,335.1,13.4"/>
	<g class="st1">
		<path class="st2" d="M716.3,274.9c-0.8-1-1.8-1.7-3.1-2.1c-1.3-0.5-2.5-0.7-3.7-0.7c-0.7,0-1.4,0.1-2.1,0.2
			c-0.7,0.2-1.4,0.4-2,0.8c-0.6,0.3-1.2,0.8-1.6,1.3c-0.4,0.6-0.6,1.2-0.6,2c0,1.3,0.5,2.3,1.4,2.9c1,0.7,2.2,1.3,3.6,1.7
			c1.5,0.5,3,1,4.7,1.4c1.7,0.5,3.2,1.2,4.7,2c1.5,0.9,2.7,2.1,3.6,3.5c1,1.5,1.4,3.5,1.4,5.9c0,2.4-0.4,4.4-1.3,6.2
			c-0.9,1.8-2.1,3.2-3.6,4.4s-3.2,2-5.2,2.6s-4.1,0.8-6.3,0.8c-2.8,0-5.3-0.4-7.7-1.3c-2.4-0.8-4.6-2.2-6.6-4.1l6.7-7.3
			c1,1.3,2.2,2.3,3.6,3c1.5,0.7,3,1.1,4.5,1.1c0.8,0,1.5-0.1,2.3-0.3s1.5-0.5,2.1-0.8c0.6-0.4,1.1-0.8,1.5-1.4
			c0.4-0.6,0.6-1.2,0.6-2c0-1.3-0.5-2.3-1.5-3c-1-0.7-2.2-1.4-3.7-1.9c-1.5-0.5-3.1-1-4.8-1.6c-1.7-0.5-3.3-1.2-4.8-2.1
			c-1.5-0.9-2.7-2-3.7-3.5c-1-1.4-1.5-3.3-1.5-5.7c0-2.3,0.5-4.3,1.4-6s2.1-3.2,3.6-4.3c1.5-1.2,3.2-2,5.2-2.6c2-0.6,4-0.9,6.1-0.9
			c2.4,0,4.7,0.3,7,1c2.2,0.7,4.3,1.8,6.1,3.4L716.3,274.9z"/>
		<path class="st2" d="M765.3,275.6c-0.9-1.1-2.1-2-3.4-2.6c-1.3-0.6-2.9-0.9-4.6-0.9c-1.8,0-3.4,0.3-4.9,1
			c-1.5,0.7-2.8,1.6-3.9,2.9c-1.1,1.2-2,2.7-2.6,4.3c-0.6,1.7-0.9,3.5-0.9,5.5c0,2,0.3,3.8,0.9,5.5c0.6,1.7,1.5,3.1,2.6,4.3
			c1.1,1.2,2.3,2.2,3.8,2.8c1.5,0.7,3,1,4.7,1c1.9,0,3.6-0.4,5.1-1.2c1.5-0.8,2.7-1.9,3.7-3.4l7.8,5.8c-1.8,2.5-4.1,4.4-6.8,5.6
			c-2.8,1.2-5.6,1.8-8.5,1.8c-3.3,0-6.4-0.5-9.2-1.6c-2.8-1-5.2-2.5-7.3-4.5c-2-1.9-3.6-4.3-4.8-7s-1.7-5.8-1.7-9.2
			c0-3.4,0.6-6.5,1.7-9.2c1.1-2.8,2.7-5.1,4.8-7c2-1.9,4.5-3.4,7.3-4.5c2.8-1,5.9-1.6,9.2-1.6c1.2,0,2.4,0.1,3.8,0.3
			c1.3,0.2,2.6,0.6,3.8,1.1c1.3,0.5,2.5,1.1,3.6,1.9c1.2,0.8,2.2,1.8,3.1,2.9L765.3,275.6z"/>
		<path class="st2" d="M786.3,264.5h16.4c2.2,0,4.2,0.2,6.2,0.6c1.9,0.4,3.6,1.1,5.1,2.1c1.5,1,2.6,2.3,3.5,4
			c0.9,1.7,1.3,3.7,1.3,6.2c0,3-0.8,5.5-2.3,7.7c-1.6,2.1-3.8,3.4-6.8,4l10.8,17.9h-11.2l-8.9-17h-4.6v17h-9.4V264.5z M795.7,282.1
			h5.5c0.8,0,1.7,0,2.7-0.1c0.9-0.1,1.8-0.2,2.5-0.5c0.8-0.3,1.4-0.8,1.9-1.4c0.5-0.6,0.8-1.5,0.8-2.7c0-1.1-0.2-1.9-0.7-2.6
			c-0.4-0.6-1-1.1-1.7-1.5c-0.7-0.3-1.5-0.6-2.3-0.7c-0.9-0.1-1.7-0.2-2.6-0.2h-6.1V282.1z"/>
		<path class="st2" d="M833.3,264.5h28.9v8.6h-19.5v7.9h18.4v8.6h-18.4v8.6h20.6v8.6h-29.9V264.5z"/>
		<path class="st2" d="M878.9,264.5h28.9v8.6h-19.5v7.9h18.4v8.6h-18.4v8.6h20.6v8.6h-29.9V264.5z"/>
		<path class="st2" d="M924,264.5h12.7l18.1,29.5h0.1v-29.5h9.4V307h-12.2l-18.5-30.2h-0.1V307H924V264.5z"/>
	</g>
</g>
</svg>
