<svg xmlns="http://www.w3.org/2000/svg" id="Warstwa_1" x="0" y="0" version="1.1" viewBox="0 0 691.8 106.6" xml:space="preserve">
  <style>
    .st2{fill:#46475e}
  </style>
  <g id="Screen_Group" transform="translate(-484.2 -222.4)">
    <path id="Screen" fill="none" stroke="#46475e" stroke-linecap="round" stroke-width="8" d="M488.5 239.8s177.3-13.4 348.1-13.4 335.1 13.4 335.1 13.4"/>
    <path d="M716.3 274.9c-.8-1-1.8-1.7-3.1-2.1a10 10 0 00-3.7-.7l-2.1.2c-.7.2-1.4.4-2 .8a5 5 0 00-1.6 1.3c-.4.6-.6 1.2-.6 2 0 1.3.5 2.3 1.4 2.9a12 12 0 003.6 1.7c1.5.5 3 1 4.7 1.4 1.7.5 3.2 1.2 4.7 2a11 11 0 013.6 3.5c1 1.5 1.4 3.5 1.4 5.9 0 2.4-.4 4.4-1.3 6.2-.9 1.8-2.1 3.2-3.6 4.4s-3.2 2-5.2 2.6-4.1.8-6.3.8c-2.8 0-5.3-.4-7.7-1.3-2.4-.8-4.6-2.2-6.6-4.1l6.7-7.3a10.3 10.3 0 008.1 4.1 9 9 0 004.4-1.1 5 5 0 001.5-1.4c.4-.6.6-1.2.6-2 0-1.3-.5-2.3-1.5-3-1-.7-2.2-1.4-3.7-1.9l-4.8-1.6c-1.7-.5-3.3-1.2-4.8-2.1-1.5-.9-2.7-2-3.7-3.5a9.6 9.6 0 01-1.5-5.7 12.7 12.7 0 015-10.3 15 15 0 015.2-2.6 23.7 23.7 0 0113.1.1c2.2.7 4.3 1.8 6.1 3.4l-6.3 7.4zM765.3 275.6a9.7 9.7 0 00-8-3.5 11.3 11.3 0 00-8.8 3.9c-1.1 1.2-2 2.7-2.6 4.3-.6 1.7-.9 3.5-.9 5.5s.3 3.8.9 5.5a12.4 12.4 0 006.4 7.1c1.5.7 3 1 4.7 1a10 10 0 008.8-4.6l7.8 5.8a16.7 16.7 0 01-6.8 5.6 21.3 21.3 0 01-8.5 1.8 25 25 0 01-9.2-1.6 20.3 20.3 0 01-12.1-11.5 22.5 22.5 0 01-1.7-9.2c0-3.4.6-6.5 1.7-9.2 1.1-2.8 2.7-5.1 4.8-7 2-1.9 4.5-3.4 7.3-4.5a27.3 27.3 0 0113-1.3c1.3.2 2.6.6 3.8 1.1a15.5 15.5 0 016.7 4.8l-7.3 6zM786.3 264.5h16.4c2.2 0 4.2.2 6.2.6 1.9.4 3.6 1.1 5.1 2.1 1.5 1 2.6 2.3 3.5 4a13 13 0 011.3 6.2c0 3-.8 5.5-2.3 7.7a10.7 10.7 0 01-6.8 4l10.8 17.9h-11.2l-8.9-17h-4.6v17h-9.4v-42.5zm9.4 17.6h5.5l2.7-.1c.9-.1 1.8-.2 2.5-.5.8-.3 1.4-.8 1.9-1.4.5-.6.8-1.5.8-2.7 0-1.1-.2-1.9-.7-2.6a5 5 0 00-1.7-1.5c-.7-.3-1.5-.6-2.3-.7l-2.6-.2h-6.1v9.7zM833.3 264.5h28.9v8.6h-19.5v7.9h18.4v8.6h-18.4v8.6h20.6v8.6h-29.9v-42.3zM878.9 264.5h28.9v8.6h-19.5v7.9h18.4v8.6h-18.4v8.6h20.6v8.6H879v-42.3zM924 264.5h12.7l18.1 29.5h.1v-29.5h9.4V307h-12.2l-18.5-30.2h-.1V307H924v-42.5z" class="st2"/>
  </g>
</svg>
