<svg xmlns="http://www.w3.org/2000/svg" width="158" height="158" viewBox="0 0 158 158">
  <g id="Group_102" data-name="Group 102" transform="translate(-1658 -280)">
    <circle id="Ellipse_15" data-name="Ellipse 15" cx="79" cy="79" r="79" transform="translate(1658 280)" fill="#2a2b3b"/>
    <g id="Group_26" data-name="Group 26" transform="translate(-76 -28)">
      <g id="Ellipse_16" data-name="Ellipse 16" transform="translate(1809 340)" fill="none" stroke="#fff" stroke-width="2" opacity="0.664">
        <circle cx="4" cy="4" r="4" stroke="none"/>
        <circle cx="4" cy="4" r="3" fill="none"/>
      </g>
      <g id="Group_24" data-name="Group 24" transform="translate(-1763 -68)" opacity="0.239">
        <path id="Path_28" data-name="Path 28" d="M3539.258,416.27l6.591,6.591" fill="none" stroke="#fff" stroke-linecap="round" stroke-width="2"/>
        <path id="Path_29" data-name="Path 29" d="M3545.849,416.27l-6.591,6.591" transform="translate(0)" fill="none" stroke="#fff" stroke-linecap="round" stroke-width="2"/>
      </g>
      <g id="Group_25" data-name="Group 25" transform="translate(-1697 -68)" opacity="0.239">
        <path id="Path_28-2" data-name="Path 28" d="M3539.258,416.27l6.591,6.591" fill="none" stroke="#fff" stroke-linecap="round" stroke-width="2"/>
        <path id="Path_29-2" data-name="Path 29" d="M3545.849,416.27l-6.591,6.591" transform="translate(0)" fill="none" stroke="#fff" stroke-linecap="round" stroke-width="2"/>
      </g>
    </g>
    <g id="Group_99" data-name="Group 99" transform="translate(3549.107 745) rotate(180)">
      <g id="Ellipse_16-2" data-name="Ellipse 16" transform="translate(1806 338)" fill="none" stroke="#fff" stroke-width="2" opacity="0.664">
        <circle cx="4" cy="4" r="4" stroke="none"/>
        <circle cx="4" cy="4" r="3" fill="none"/>
      </g>
      <g id="Group_24-2" data-name="Group 24" transform="translate(-1763 -68)" opacity="0.239">
        <path id="Path_28-3" data-name="Path 28" d="M3539.258,416.27l6.591,6.591" fill="none" stroke="#fff" stroke-linecap="round" stroke-width="2"/>
        <path id="Path_29-3" data-name="Path 29" d="M3545.849,416.27l-6.591,6.591" transform="translate(0)" fill="none" stroke="#fff" stroke-linecap="round" stroke-width="2"/>
      </g>
      <g id="Group_25-2" data-name="Group 25" transform="translate(-1697 -68)" opacity="0.239">
        <path id="Path_28-4" data-name="Path 28" d="M3539.258,416.27l6.591,6.591" fill="none" stroke="#fff" stroke-linecap="round" stroke-width="2"/>
        <path id="Path_29-4" data-name="Path 29" d="M3545.849,416.27l-6.591,6.591" transform="translate(0)" fill="none" stroke="#fff" stroke-linecap="round" stroke-width="2"/>
      </g>
    </g>
    <path id="Path_57" data-name="Path 57" d="M6891.3,1629.088l13.336,13.336,29.344-26.538" transform="translate(-5175.543 -1270.36)" fill="none" stroke="#59c47a" stroke-linecap="round" stroke-width="6"/>
  </g>
</svg>
